<svg xmlns="http://www.w3.org/2000/svg" viewBox="0 0 96 96" width="96" height="96" role="img" aria-hidden="true">
  <defs>
    <linearGradient id="bottle" x1="0" y1="0" x2="1" y2="1">
      <stop offset="0" stop-color="#FFC7DE"/>
      <stop offset="1" stop-color="#D3608F"/>
    </linearGradient>
    <linearGradient id="cap" x1="0" y1="0" x2="0" y2="1">
      <stop offset="0" stop-color="#FFE9A8"/>
      <stop offset="1" stop-color="#D9A93F"/>
    </linearGradient>
    <linearGradient id="lipstick" x1="0" y1="0" x2="1" y2="1">
      <stop offset="0" stop-color="#FF7B7B"/>
      <stop offset="1" stop-color="#C7263F"/>
    </linearGradient>
  </defs>

  <ellipse cx="48" cy="82" rx="26" ry="5.5" fill="#000" opacity="0.18"/>

  <g transform="translate(-6 0)">
    <rect x="34" y="14" width="14" height="12" rx="4" fill="url(#cap)"/>
    <rect x="38" y="24" width="6" height="8" fill="#C99B36"/>
    <path d="M28 36a8 8 0 0 1 8-8h10a8 8 0 0 1 8 8v34a8 8 0 0 1-8 8H36a8 8 0 0 1-8-8z" fill="url(#bottle)"/>
    <rect x="33" y="34" width="7" height="20" rx="3.5" fill="#FFFFFF" opacity="0.4"/>
  </g>

  <g transform="translate(56 40) rotate(12)">
    <rect x="0" y="12" width="16" height="30" rx="4" fill="#3B3B45"/>
    <rect x="2" y="4" width="12" height="12" rx="3" fill="#5A5A68"/>
    <path d="M3 4h10v-3l-4-3-6 3z" fill="url(#lipstick)"/>
  </g>

  <path d="M74 18l2.4 5.6L82 26l-5.6 2.4L74 34l-2.4-5.6L66 26l5.6-2.4z" fill="#FFFFFF" opacity="0.75"/>
</svg>
