<svg xmlns="http://www.w3.org/2000/svg" viewBox="0 0 96 96" width="96" height="96" role="img" aria-hidden="true">
  <defs>
    <linearGradient id="shirt" x1="0" y1="0" x2="1" y2="1">
      <stop offset="0" stop-color="#8FB8FF"/>
      <stop offset="1" stop-color="#3C63C9"/>
    </linearGradient>
    <linearGradient id="sleeve" x1="0" y1="0" x2="0" y2="1">
      <stop offset="0" stop-color="#7AA5F2"/>
      <stop offset="1" stop-color="#2F52AE"/>
    </linearGradient>
  </defs>

  <ellipse cx="48" cy="82" rx="26" ry="5.5" fill="#000" opacity="0.18"/>

  <path d="M36 18l-22 12 7 14 9-4v38a4 4 0 0 0 4 4h28a4 4 0 0 0 4-4V40l9 4 7-14-22-12z" fill="url(#shirt)"/>
  <path d="M14 30l22-12 4 6-19 20z" fill="url(#sleeve)"/>
  <path d="M82 30L60 18l-4 6 19 20z" fill="url(#sleeve)"/>
  <path d="M36 18c3 8 21 8 24 0-4 6-20 6-24 0z" fill="#22397C" opacity="0.55"/>
  <path d="M36 18c4 9 20 9 24 0" stroke="#FFFFFF" stroke-opacity="0.35" stroke-width="2" fill="none"/>
  <path d="M40 52c8 3 12 3 18 0" stroke="#FFFFFF" stroke-opacity="0.2" stroke-width="2.5" fill="none" stroke-linecap="round"/>
</svg>
